<svg width="43" height="27" viewBox="0 0 43 27" fill="none" xmlns="http://www.w3.org/2000/svg">
<path d="M42.8368 1.5V13.5C42.8368 13.8978 42.6787 14.2794 42.3974 14.5607C42.1161 14.842 41.7346 15 41.3368 15C40.9389 15 40.5574 14.842 40.2761 14.5607C39.9948 14.2794 39.8368 13.8978 39.8368 13.5V5.12062L24.398 20.5613C24.2587 20.7007 24.0933 20.8114 23.9112 20.8868C23.7291 20.9623 23.5339 21.0012 23.3368 21.0012C23.1396 21.0012 22.9445 20.9623 22.7624 20.8868C22.5803 20.8114 22.4148 20.7007 22.2755 20.5613L15.8368 14.1206L3.39802 26.5613C3.11656 26.8427 2.73482 27.0008 2.33677 27.0008C1.93873 27.0008 1.55698 26.8427 1.27552 26.5613C0.994061 26.2798 0.835938 25.898 0.835938 25.5C0.835937 25.102 0.994061 24.7202 1.27552 24.4387L14.7755 10.9387C14.9148 10.7993 15.0803 10.6886 15.2624 10.6132C15.4445 10.5377 15.6396 10.4988 15.8368 10.4988C16.0339 10.4988 16.2291 10.5377 16.4112 10.6132C16.5933 10.6886 16.7587 10.7993 16.898 10.9387L23.3368 17.3794L37.7161 3H29.3368C28.9389 3 28.5574 2.84196 28.2761 2.56066C27.9948 2.27936 27.8368 1.89782 27.8368 1.5C27.8368 1.10218 27.9948 0.720645 28.2761 0.43934C28.5574 0.158036 28.9389 0 29.3368 0H41.3368C41.7346 0 42.1161 0.158036 42.3974 0.43934C42.6787 0.720645 42.8368 1.10218 42.8368 1.5Z" fill="#DA2D6E"/>
</svg>
