<svg width="48" height="31" viewBox="0 0 48 31" fill="none" xmlns="http://www.w3.org/2000/svg">
<path d="M21.9842 20.6102C23.9946 19.2718 25.5209 17.3219 26.3374 15.049C27.1539 12.7761 27.2173 10.3007 26.5182 7.98899C25.819 5.67725 24.3945 3.65187 22.4553 2.21235C20.516 0.772831 18.165 -0.00439453 15.7498 -0.00439453C13.3347 -0.00439453 10.9837 0.772831 9.04442 2.21235C7.10517 3.65187 5.68065 5.67725 4.98152 7.98899C4.28239 10.3007 4.34577 12.7761 5.16228 15.049C5.9788 17.3219 7.5051 19.2718 9.51547 20.6102C5.8789 21.9505 2.77317 24.4307 0.661724 27.6808C0.550753 27.8457 0.473673 28.0311 0.434964 28.2261C0.396254 28.421 0.396688 28.6218 0.436239 28.8166C0.47579 29.0114 0.55367 29.1964 0.665351 29.3609C0.777033 29.5253 0.920289 29.6659 1.08679 29.7745C1.25329 29.8831 1.43972 29.9575 1.63524 29.9935C1.83076 30.0294 2.03146 30.0261 2.22569 29.9837C2.41992 29.9414 2.6038 29.8609 2.76663 29.7469C2.92947 29.6328 3.06802 29.4876 3.17422 29.3195C4.5362 27.2248 6.39989 25.5034 8.59604 24.3118C10.7922 23.1201 13.2512 22.496 15.7498 22.496C18.2485 22.496 20.7075 23.1201 22.9037 24.3118C25.0998 25.5034 26.9635 27.2248 28.3255 29.3195C28.5455 29.6465 28.8853 29.8738 29.2716 29.9522C29.6578 30.0306 30.0594 29.9539 30.3895 29.7386C30.7196 29.5233 30.9517 29.1867 31.0356 28.8016C31.1195 28.4166 31.0485 28.0139 30.838 27.6808C28.7265 24.4307 25.6208 21.9505 21.9842 20.6102ZM7.49985 11.2502C7.49985 9.61847 7.9837 8.02342 8.89022 6.66672C9.79675 5.31001 11.0852 4.25259 12.5927 3.62816C14.1002 3.00374 15.759 2.84036 17.3593 3.15869C18.9597 3.47702 20.4297 4.26276 21.5835 5.41654C22.7373 6.57032 23.523 8.04033 23.8413 9.64067C24.1597 11.241 23.9963 12.8998 23.3719 14.4073C22.7474 15.9148 21.69 17.2033 20.3333 18.1098C18.9766 19.0163 17.3815 19.5002 15.7498 19.5002C13.5626 19.4977 11.4656 18.6277 9.91896 17.0811C8.37232 15.5344 7.50233 13.4374 7.49985 11.2502ZM46.9011 29.7564C46.5679 29.9737 46.1621 30.0497 45.7728 29.9678C45.3836 29.8859 45.0428 29.6527 44.8255 29.3195C43.4651 27.2235 41.6017 25.5014 39.4051 24.3102C37.2085 23.1191 34.7486 22.4968 32.2499 22.5002C31.852 22.5002 31.4705 22.3421 31.1892 22.0608C30.9079 21.7795 30.7499 21.398 30.7499 21.0002C30.7499 20.6023 30.9079 20.2208 31.1892 19.9395C31.4705 19.6582 31.852 19.5002 32.2499 19.5002C33.4648 19.499 34.6645 19.2296 35.7632 18.711C36.8619 18.1925 37.8326 17.4377 38.6058 16.5005C39.379 15.5633 39.9356 14.467 40.236 13.2898C40.5363 12.1125 40.573 10.8835 40.3433 9.69045C40.1136 8.49742 39.6232 7.36984 38.9072 6.38829C38.1913 5.40674 37.2673 4.59544 36.2014 4.01236C35.1355 3.42928 33.954 3.08882 32.7413 3.01529C31.5286 2.94177 30.3146 3.137 29.1861 3.58704C29.0021 3.66659 28.804 3.70844 28.6036 3.71014C28.4031 3.71183 28.2044 3.67333 28.019 3.59691C27.8337 3.52049 27.6656 3.4077 27.5246 3.2652C27.3836 3.12271 27.2726 2.9534 27.1982 2.76728C27.1237 2.58116 27.0873 2.382 27.0912 2.18158C27.095 1.98116 27.1389 1.78354 27.2204 1.60039C27.3019 1.41725 27.4193 1.25229 27.5656 1.11528C27.712 0.978264 27.8843 0.871968 28.0723 0.80267C30.6551 -0.227359 33.5278 -0.264426 36.1362 0.69862C38.7447 1.66167 40.9041 3.55659 42.1978 6.01783C43.4916 8.47906 43.8281 11.3322 43.1423 14.0269C42.4565 16.7216 40.7971 19.0668 38.4842 20.6102C42.1208 21.9505 45.2265 24.4307 47.338 27.6808C47.5552 28.014 47.6313 28.4198 47.5494 28.8091C47.4674 29.1983 47.2342 29.5391 46.9011 29.7564Z" fill="#007AD2"/>
</svg>
