<svg width="22" height="14" viewBox="0 0 22 14" fill="none" xmlns="http://www.w3.org/2000/svg">
<path d="M21.5004 1.25V7.25C21.5004 7.44891 21.4214 7.63968 21.2807 7.78033C21.1401 7.92098 20.9493 8 20.7504 8C20.5515 8 20.3607 7.92098 20.2201 7.78033C20.0794 7.63968 20.0004 7.44891 20.0004 7.25V3.06031L12.281 10.7806C12.2114 10.8504 12.1287 10.9057 12.0376 10.9434C11.9466 10.9812 11.849 11.0006 11.7504 11.0006C11.6519 11.0006 11.5543 10.9812 11.4632 10.9434C11.3722 10.9057 11.2894 10.8504 11.2198 10.7806L8.00042 7.56031L1.78104 13.7806C1.64031 13.9214 1.44944 14.0004 1.25042 14.0004C1.05139 14.0004 0.860523 13.9214 0.719792 13.7806C0.579062 13.6399 0.5 13.449 0.5 13.25C0.5 13.051 0.579062 12.8601 0.719792 12.7194L7.46979 5.96937C7.53945 5.89964 7.62216 5.84432 7.71321 5.80658C7.80426 5.76884 7.90186 5.74941 8.00042 5.74941C8.09898 5.74941 8.19657 5.76884 8.28762 5.80658C8.37867 5.84432 8.46139 5.89964 8.53104 5.96937L11.7504 9.18969L18.9401 2H14.7504C14.5515 2 14.3607 1.92098 14.2201 1.78033C14.0794 1.63968 14.0004 1.44891 14.0004 1.25C14.0004 1.05109 14.0794 0.860322 14.2201 0.71967C14.3607 0.579018 14.5515 0.5 14.7504 0.5H20.7504C20.9493 0.5 21.1401 0.579018 21.2807 0.71967C21.4214 0.860322 21.5004 1.05109 21.5004 1.25Z" fill="#22A747"/>
</svg>
