<svg width="26" height="30" viewBox="0 0 26 30" fill="none" xmlns="http://www.w3.org/2000/svg">
<path d="M25.0459 8.57906L17.1709 0.704063C17.0664 0.599624 16.9423 0.516808 16.8057 0.460347C16.6691 0.403885 16.5228 0.374884 16.375 0.375H2.875C2.27826 0.375 1.70597 0.612053 1.28401 1.03401C0.862053 1.45597 0.625 2.02826 0.625 2.625V27.375C0.625 27.9717 0.862053 28.544 1.28401 28.966C1.70597 29.3879 2.27826 29.625 2.875 29.625H23.125C23.7217 29.625 24.294 29.3879 24.716 28.966C25.1379 28.544 25.375 27.9717 25.375 27.375V9.375C25.3751 9.22722 25.3461 9.08086 25.2897 8.94429C25.2332 8.80772 25.1504 8.68362 25.0459 8.57906ZM17.5 4.21547L21.5345 8.25H17.5V4.21547ZM23.125 27.375H2.875V2.625H15.25V9.375C15.25 9.67337 15.3685 9.95952 15.5795 10.1705C15.7905 10.3815 16.0766 10.5 16.375 10.5H23.125V27.375ZM16.7209 20.5055C17.3849 19.4505 17.6368 18.1878 17.4287 16.9588C17.2205 15.7297 16.5668 14.6205 15.5925 13.8429C14.6182 13.0654 13.3916 12.674 12.147 12.7437C10.9024 12.8134 9.72706 13.3392 8.84562 14.2206C7.96418 15.1021 7.4384 16.2774 7.36872 17.522C7.29904 18.7666 7.69036 19.9932 8.46791 20.9675C9.24545 21.9418 10.3547 22.5955 11.5838 22.8037C12.8128 23.0118 14.0755 22.7599 15.1305 22.0959L16.7041 23.6709C16.8086 23.7755 16.9327 23.8584 17.0692 23.9149C17.2058 23.9715 17.3522 24.0006 17.5 24.0006C17.6478 24.0006 17.7942 23.9715 17.9308 23.9149C18.0673 23.8584 18.1914 23.7755 18.2959 23.6709C18.4005 23.5664 18.4834 23.4423 18.5399 23.3058C18.5965 23.1692 18.6256 23.0228 18.6256 22.875C18.6256 22.7272 18.5965 22.5808 18.5399 22.4442C18.4834 22.3077 18.4005 22.1836 18.2959 22.0791L16.7209 20.5055ZM9.625 17.8125C9.625 17.2562 9.78995 16.7125 10.099 16.25C10.408 15.7874 10.8473 15.427 11.3612 15.2141C11.8751 15.0012 12.4406 14.9455 12.9862 15.054C13.5318 15.1626 14.0329 15.4304 14.4262 15.8238C14.8196 16.2171 15.0874 16.7182 15.196 17.2638C15.3045 17.8094 15.2488 18.3749 15.0359 18.8888C14.823 19.4027 14.4626 19.842 14 20.151C13.5375 20.4601 12.9938 20.625 12.4375 20.625C11.6916 20.625 10.9762 20.3287 10.4488 19.8012C9.92132 19.2738 9.625 18.5584 9.625 17.8125Z" fill="#22A747"/>
</svg>
