<svg width="45" height="28" viewBox="0 0 45 28" fill="none" xmlns="http://www.w3.org/2000/svg">
<path d="M22.5 6.5C21.0166 6.5 19.5666 6.93987 18.3332 7.76398C17.0999 8.58809 16.1386 9.75943 15.5709 11.1299C15.0032 12.5003 14.8547 14.0083 15.1441 15.4632C15.4335 16.918 16.1478 18.2544 17.1967 19.3033C18.2456 20.3522 19.582 21.0665 21.0368 21.3559C22.4917 21.6453 23.9997 21.4968 25.3701 20.9291C26.7406 20.3614 27.9119 19.4001 28.736 18.1668C29.5601 16.9334 30 15.4834 30 14C30 12.0109 29.2098 10.1032 27.8033 8.6967C26.3968 7.29018 24.4891 6.5 22.5 6.5ZM22.5 18.5C21.61 18.5 20.74 18.2361 19.9999 17.7416C19.2599 17.2471 18.6831 16.5443 18.3425 15.7221C18.0019 14.8998 17.9128 13.995 18.0865 13.1221C18.2601 12.2492 18.6887 11.4474 19.318 10.818C19.9474 10.1887 20.7492 9.7601 21.6221 9.58647C22.495 9.41283 23.3998 9.50195 24.2221 9.84254C25.0443 10.1831 25.7471 10.7599 26.2416 11.4999C26.7361 12.24 27 13.11 27 14C27 15.1935 26.5259 16.3381 25.682 17.182C24.8381 18.0259 23.6935 18.5 22.5 18.5ZM43.5 0.5H1.5C1.10218 0.5 0.720644 0.658036 0.43934 0.93934C0.158035 1.22064 0 1.60218 0 2V26C0 26.3978 0.158035 26.7794 0.43934 27.0607C0.720644 27.342 1.10218 27.5 1.5 27.5H43.5C43.8978 27.5 44.2794 27.342 44.5607 27.0607C44.842 26.7794 45 26.3978 45 26V2C45 1.60218 44.842 1.22064 44.5607 0.93934C44.2794 0.658036 43.8978 0.5 43.5 0.5ZM34.8094 24.5H10.1906C9.68701 22.7968 8.76526 21.2466 7.50934 19.9907C6.25342 18.7347 4.70324 17.813 3 17.3094V10.6906C4.70324 10.187 6.25342 9.26526 7.50934 8.00934C8.76526 6.75342 9.68701 5.20324 10.1906 3.5H34.8094C35.313 5.20324 36.2347 6.75342 37.4907 8.00934C38.7466 9.26526 40.2968 10.187 42 10.6906V17.3094C40.2968 17.813 38.7466 18.7347 37.4907 19.9907C36.2347 21.2466 35.313 22.7968 34.8094 24.5ZM42 7.50688C40.2008 6.73324 38.7668 5.29918 37.9931 3.5H42V7.50688ZM7.00688 3.5C6.23324 5.29918 4.79918 6.73324 3 7.50688V3.5H7.00688ZM3 20.4931C4.79918 21.2668 6.23324 22.7008 7.00688 24.5H3V20.4931ZM37.9931 24.5C38.7668 22.7008 40.2008 21.2668 42 20.4931V24.5H37.9931Z" fill="#22A747"/>
</svg>
