<svg width="24" height="15" viewBox="0 0 24 15" fill="none" xmlns="http://www.w3.org/2000/svg">
<path d="M10.9921 10.3048C11.9973 9.63564 12.7605 8.66073 13.1687 7.52426C13.577 6.3878 13.6087 5.15012 13.2591 3.99425C12.9095 2.83838 12.1973 1.82569 11.2276 1.10593C10.258 0.386171 9.0825 -0.00244141 7.87492 -0.00244141C6.66735 -0.00244141 5.49184 0.386171 4.52221 1.10593C3.55258 1.82569 2.84032 2.83838 2.49076 3.99425C2.1412 5.15012 2.17288 6.3878 2.58114 7.52426C2.9894 8.66073 3.75255 9.63564 4.75774 10.3048C2.93945 10.975 1.38659 12.2151 0.330862 13.8402C0.275377 13.9226 0.236837 14.0153 0.217482 14.1128C0.198127 14.2103 0.198344 14.3106 0.218119 14.408C0.237895 14.5055 0.276835 14.598 0.332676 14.6802C0.388516 14.7624 0.460144 14.8327 0.543396 14.887C0.626647 14.9413 0.719861 14.9785 0.81762 14.9965C0.915378 15.0144 1.01573 15.0128 1.11285 14.9916C1.20996 14.9705 1.3019 14.9302 1.38332 14.8732C1.46473 14.8162 1.53401 14.7435 1.58711 14.6595C2.2681 13.6121 3.19995 12.7515 4.29802 12.1556C5.3961 11.5598 6.62562 11.2477 7.87492 11.2477C9.12423 11.2477 10.3538 11.5598 11.4518 12.1556C12.5499 12.7515 13.4817 13.6121 14.1627 14.6595C14.2727 14.823 14.4427 14.9367 14.6358 14.9759C14.8289 15.0151 15.0297 14.9767 15.1947 14.869C15.3598 14.7614 15.4758 14.5931 15.5178 14.4006C15.5598 14.208 15.5243 14.0067 15.419 13.8402C14.3633 12.2151 12.8104 10.975 10.9921 10.3048ZM3.74992 5.62484C3.74992 4.80899 3.99185 4.01147 4.44511 3.33311C4.89837 2.65476 5.54261 2.12605 6.29636 1.81384C7.0501 1.50163 7.8795 1.41994 8.67967 1.5791C9.47984 1.73827 10.2148 2.13113 10.7917 2.70803C11.3686 3.28492 11.7615 4.01992 11.9207 4.82009C12.0798 5.62027 11.9981 6.44967 11.6859 7.20341C11.3737 7.95716 10.845 8.60139 10.1667 9.05465C9.4883 9.50791 8.69077 9.74984 7.87492 9.74984C6.78129 9.7486 5.7328 9.31361 4.95948 8.54029C4.18616 7.76697 3.75117 6.71848 3.74992 5.62484ZM23.4506 14.878C23.284 14.9866 23.081 15.0246 22.8864 14.9837C22.6918 14.9427 22.5214 14.8261 22.4127 14.6595C21.7326 13.6115 20.8008 12.7505 19.7025 12.1549C18.6042 11.5593 17.3743 11.2482 16.1249 11.2498C15.926 11.2498 15.7352 11.1708 15.5946 11.0302C15.4539 10.8895 15.3749 10.6988 15.3749 10.4998C15.3749 10.3009 15.4539 10.1102 15.5946 9.96951C15.7352 9.82886 15.926 9.74984 16.1249 9.74984C16.7324 9.74927 17.3322 9.61453 17.8816 9.35526C18.431 9.09599 18.9163 8.71858 19.3029 8.25C19.6895 7.78143 19.9678 7.23325 20.118 6.64463C20.2682 6.05602 20.2865 5.4415 20.1716 4.84498C20.0568 4.24846 19.8116 3.68468 19.4536 3.1939C19.0956 2.70312 18.6337 2.29747 18.1007 2.00593C17.5678 1.7144 16.977 1.54416 16.3707 1.5074C15.7643 1.47064 15.1573 1.56826 14.5931 1.79328C14.501 1.83305 14.402 1.85398 14.3018 1.85482C14.2016 1.85567 14.1022 1.83642 14.0095 1.79821C13.9169 1.76 13.8328 1.7036 13.7623 1.63236C13.6918 1.56111 13.6363 1.47645 13.5991 1.38339C13.5619 1.29033 13.5437 1.19076 13.5456 1.09055C13.5475 0.990335 13.5695 0.891525 13.6102 0.799952C13.651 0.70838 13.7097 0.625903 13.7828 0.557395C13.856 0.488888 13.9421 0.43574 14.0362 0.401091C15.3275 -0.113924 16.7639 -0.132457 18.0681 0.349066C19.3723 0.830589 20.452 1.77805 21.0989 3.00867C21.7458 4.23929 21.914 5.66587 21.5711 7.0132C21.2283 8.36053 20.3986 9.53315 19.2421 10.3048C21.0604 10.975 22.6133 12.2151 23.669 13.8402C23.7776 14.0068 23.8156 14.2097 23.7747 14.4043C23.7337 14.5989 23.6171 14.7693 23.4506 14.878Z" fill="#E9F6ED"/>
</svg>
