<svg width="36" height="24" viewBox="0 0 36 24" fill="none" xmlns="http://www.w3.org/2000/svg">
<path d="M16.4882 16.2075C17.996 15.2037 19.1407 13.7413 19.7531 12.0366C20.3654 10.3319 20.413 8.47542 19.8886 6.74162C19.3643 5.00781 18.2959 3.48878 16.8415 2.40914C15.387 1.3295 13.6237 0.746582 11.8124 0.746582C10.001 0.746582 8.23776 1.3295 6.78332 2.40914C5.32888 3.48878 4.26049 5.00781 3.73614 6.74162C3.21179 8.47542 3.25933 10.3319 3.87171 12.0366C4.4841 13.7413 5.62882 15.2037 7.13661 16.2075C4.40917 17.2127 2.07988 19.0729 0.496293 21.5105C0.413065 21.6342 0.355255 21.7732 0.326223 21.9194C0.297191 22.0657 0.297516 22.2162 0.327179 22.3623C0.356842 22.5084 0.415252 22.6472 0.499013 22.7705C0.582775 22.8939 0.690216 22.9993 0.815093 23.0808C0.93997 23.1622 1.07979 23.218 1.22643 23.245C1.37307 23.2719 1.5236 23.2694 1.66927 23.2377C1.81494 23.2059 1.95285 23.1455 2.07498 23.06C2.1971 22.9745 2.30101 22.8656 2.38067 22.7395C3.40215 21.1685 4.79992 19.8774 6.44703 18.9837C8.09415 18.09 9.93842 17.6218 11.8124 17.6218C13.6863 17.6218 15.5306 18.09 17.1777 18.9837C18.8249 19.8774 20.2226 21.1685 21.2441 22.7395C21.4091 22.9848 21.664 23.1552 21.9537 23.214C22.2433 23.2728 22.5445 23.2153 22.7921 23.0538C23.0397 22.8923 23.2137 22.6399 23.2767 22.3511C23.3396 22.0623 23.2864 21.7603 23.1285 21.5105C21.5449 19.0729 19.2156 17.2127 16.4882 16.2075ZM5.62489 9.18751C5.62489 7.96373 5.98778 6.76744 6.66767 5.74991C7.34756 4.73239 8.31391 3.93932 9.44453 3.471C10.5752 3.00268 11.8193 2.88015 13.0195 3.1189C14.2198 3.35764 15.3223 3.94694 16.1876 4.81228C17.0529 5.67762 17.6422 6.78013 17.881 7.98038C18.1197 9.18064 17.9972 10.4247 17.5289 11.5554C17.0606 12.686 16.2675 13.6523 15.25 14.3322C14.2324 15.0121 13.0362 15.375 11.8124 15.375C10.1719 15.3731 8.5992 14.7207 7.43922 13.5607C6.27924 12.4007 5.62675 10.828 5.62489 9.18751ZM35.1758 23.0672C34.9259 23.2301 34.6215 23.2872 34.3296 23.2257C34.0377 23.1643 33.7821 22.9894 33.6191 22.7395C32.5988 21.1675 31.2013 19.8759 29.5538 18.9826C27.9064 18.0892 26.0615 17.6225 24.1874 17.625C23.889 17.625 23.6029 17.5065 23.3919 17.2955C23.1809 17.0845 23.0624 16.7984 23.0624 16.5C23.0624 16.2016 23.1809 15.9155 23.3919 15.7045C23.6029 15.4935 23.889 15.375 24.1874 15.375C25.0986 15.3741 25.9984 15.172 26.8224 14.7831C27.6465 14.3942 28.3744 13.8281 28.9543 13.1252C29.5342 12.4224 29.9517 11.6001 30.177 10.7172C30.4023 9.83427 30.4297 8.91249 30.2575 8.01771C30.0852 7.12294 29.7174 6.27726 29.1804 5.54109C28.6434 4.80493 27.9505 4.19645 27.1511 3.75915C26.3517 3.32184 25.4655 3.06649 24.556 3.01135C23.6465 2.95621 22.736 3.10263 21.8896 3.44016C21.7516 3.49982 21.603 3.53121 21.4527 3.53248C21.3023 3.53375 21.1533 3.50487 21.0143 3.44756C20.8753 3.39024 20.7492 3.30565 20.6435 3.19878C20.5377 3.09191 20.4545 2.96492 20.3986 2.82533C20.3428 2.68574 20.3155 2.53638 20.3184 2.38606C20.3212 2.23575 20.3542 2.08753 20.4153 1.95017C20.4764 1.81281 20.5645 1.6891 20.6742 1.58634C20.784 1.48358 20.9132 1.40385 21.0543 1.35188C22.9913 0.579358 25.1458 0.551559 27.1022 1.27384C29.0585 1.99613 30.6781 3.41732 31.6484 5.26325C32.6187 7.10918 32.871 9.24905 32.3567 11.27C31.8424 13.291 30.5978 15.05 28.8632 16.2075C31.5906 17.2127 33.9199 19.0729 35.5035 21.5105C35.6664 21.7604 35.7235 22.0648 35.662 22.3567C35.6006 22.6486 35.4257 22.9042 35.1758 23.0672Z" fill="#22A747"/>
</svg>
