<svg width="33" height="46" viewBox="0 0 33 46" fill="none" xmlns="http://www.w3.org/2000/svg">
<path d="M33 17C33.0017 14.2194 32.3006 11.4835 30.9618 9.04633C29.6231 6.60918 27.6902 4.54989 25.3426 3.05972C22.995 1.56955 20.3088 0.696842 17.5337 0.522647C14.7585 0.348452 11.9843 0.878424 9.46881 2.06334C6.9533 3.24825 4.77803 5.04967 3.14505 7.30028C1.51208 9.55089 0.474361 12.1777 0.128292 14.9367C-0.217776 17.6957 0.139027 20.4974 1.16556 23.0816C2.19209 25.6658 3.85506 27.9487 6 29.7182V44C5.99982 44.2559 6.06506 44.5075 6.18954 44.731C6.31401 44.9544 6.49357 45.1424 6.71115 45.2769C6.92874 45.4115 7.17711 45.4881 7.43267 45.4996C7.68823 45.5111 7.94248 45.457 8.17125 45.3425L16.5 41.1875L24.8306 45.3519C25.0395 45.4518 25.2685 45.5025 25.5 45.5C25.8978 45.5 26.2794 45.342 26.5607 45.0607C26.842 44.7794 27 44.3979 27 44V29.7182C28.8767 28.1725 30.388 26.2305 31.4254 24.0316C32.4628 21.8326 33.0005 19.4314 33 17ZM3 17C3 14.33 3.79176 11.7199 5.27516 9.49983C6.75856 7.27977 8.86697 5.54944 11.3338 4.52766C13.8006 3.50588 16.515 3.23853 19.1337 3.75943C21.7525 4.28033 24.1579 5.56608 26.0459 7.45409C27.934 9.3421 29.2197 11.7476 29.7406 14.3663C30.2615 16.9851 29.9942 19.6995 28.9724 22.1663C27.9506 24.6331 26.2203 26.7415 24.0002 28.2249C21.7801 29.7083 19.1701 30.5 16.5 30.5C12.9208 30.4961 9.48933 29.0725 6.95845 26.5416C4.42757 24.0107 3.00397 20.5792 3 17ZM24 41.5738L17.1694 38.1594C16.961 38.0551 16.7312 38.0008 16.4981 38.0008C16.2651 38.0008 16.0353 38.0551 15.8269 38.1594L9 41.5738V31.6944C11.3219 32.8812 13.8924 33.5 16.5 33.5C19.1076 33.5 21.6781 32.8812 24 31.6944V41.5738ZM16.5 27.5C18.5767 27.5 20.6068 26.8842 22.3335 25.7305C24.0602 24.5767 25.406 22.9368 26.2007 21.0182C26.9955 19.0996 27.2034 16.9884 26.7983 14.9516C26.3931 12.9148 25.3931 11.0439 23.9246 9.57541C22.4562 8.10696 20.5853 7.10693 18.5485 6.70179C16.5117 6.29664 14.4004 6.50458 12.4818 7.2993C10.5632 8.09402 8.92333 9.43983 7.76957 11.1665C6.61582 12.8933 6 14.9233 6 17C6.00298 19.7839 7.11018 22.4529 9.07867 24.4214C11.0472 26.3899 13.7161 27.4971 16.5 27.5ZM16.5 9.50003C17.9834 9.50003 19.4334 9.9399 20.6668 10.764C21.9001 11.5881 22.8614 12.7595 23.4291 14.1299C23.9968 15.5004 24.1453 17.0084 23.8559 18.4632C23.5665 19.9181 22.8522 21.2544 21.8033 22.3033C20.7544 23.3522 19.418 24.0665 17.9632 24.3559C16.5083 24.6453 15.0003 24.4968 13.6299 23.9291C12.2594 23.3615 11.0881 22.4002 10.264 21.1668C9.43987 19.9334 9 18.4834 9 17C9 15.0109 9.79018 13.1033 11.1967 11.6967C12.6032 10.2902 14.5109 9.50003 16.5 9.50003Z" fill="#E9B614"/>
</svg>
