<svg width="22" height="21" viewBox="0 0 22 21" fill="none" xmlns="http://www.w3.org/2000/svg">
<path d="M7.99863 18.0001C7.99863 18.199 7.91961 18.3898 7.77896 18.5304C7.63831 18.6711 7.44754 18.7501 7.24863 18.7501H2.74863C2.35379 18.7498 1.96596 18.6457 1.62411 18.4481C1.28226 18.2505 0.998417 17.9665 0.8011 17.6245C0.603784 17.2825 0.49994 16.8946 0.5 16.4997C0.50006 16.1049 0.604022 15.717 0.801443 15.3751L4.01613 9.82038L2.69894 10.1719C2.60353 10.1974 2.50403 10.2039 2.40613 10.1909C2.30822 10.1779 2.21383 10.1458 2.12835 10.0964C1.9557 9.9965 1.82979 9.83214 1.77832 9.63945C1.72685 9.44675 1.75404 9.2415 1.8539 9.06885C1.95376 8.8962 2.11812 8.77029 2.31082 8.71882L5.38301 7.89664C5.47817 7.87112 5.57744 7.86461 5.67512 7.87747C5.77281 7.89033 5.867 7.92231 5.95232 7.97159C6.03764 8.02087 6.11242 8.08647 6.17238 8.16466C6.23233 8.24284 6.2763 8.33208 6.30176 8.42726L7.12582 11.4994C7.15185 11.5951 7.15867 11.6949 7.14591 11.7931C7.13314 11.8914 7.10103 11.9861 7.05142 12.0719C7.00183 12.1577 6.93572 12.2328 6.85693 12.2929C6.77814 12.3529 6.68822 12.3968 6.59238 12.4219C6.5287 12.4385 6.46318 12.447 6.39738 12.4473C6.23239 12.4471 6.07206 12.3925 5.94122 12.292C5.81037 12.1915 5.71632 12.0507 5.67363 11.8913L5.31738 10.5648L2.10269 16.1251C2.03702 16.2388 2.00237 16.3678 2.00221 16.4992C2.00205 16.6305 2.03639 16.7596 2.10179 16.8735C2.1672 16.9874 2.26137 17.0822 2.37488 17.1483C2.4884 17.2143 2.61728 17.2494 2.74863 17.2501H7.24863C7.44754 17.2501 7.63831 17.3291 7.77896 17.4697C7.91961 17.6104 7.99863 17.8012 7.99863 18.0001ZM21.1921 15.3751L19.0227 11.6251C18.9189 11.4618 18.7561 11.345 18.5682 11.299C18.3803 11.2529 18.1819 11.2813 18.0144 11.3781C17.8469 11.4749 17.7234 11.6327 17.6695 11.8185C17.6156 12.0042 17.6355 12.2037 17.7252 12.3751L19.8946 16.1251C19.9602 16.2388 19.9949 16.3678 19.9951 16.4992C19.9952 16.6305 19.9609 16.7596 19.8955 16.8735C19.8301 16.9874 19.7359 17.0822 19.6224 17.1483C19.5089 17.2143 19.38 17.2494 19.2486 17.2501H12.8089L13.7783 16.2807C13.919 16.1401 13.9982 15.9493 13.9982 15.7504C13.9983 15.5515 13.9194 15.3606 13.7788 15.2199C13.6382 15.0792 13.4474 15.0001 13.2485 15C13.0496 14.9999 12.8587 15.0788 12.718 15.2194L10.468 17.4694C10.3983 17.5391 10.343 17.6218 10.3052 17.7129C10.2675 17.8039 10.248 17.9015 10.248 18.0001C10.248 18.0986 10.2675 18.1962 10.3052 18.2873C10.343 18.3783 10.3983 18.461 10.468 18.5307L12.718 20.7807C12.7877 20.8503 12.8704 20.9055 12.9614 20.9432C13.0524 20.9808 13.15 21.0002 13.2485 21.0002C13.347 21.0001 13.4445 20.9807 13.5355 20.9429C13.6265 20.9052 13.7092 20.8499 13.7788 20.7802C13.8484 20.7105 13.9036 20.6278 13.9413 20.5368C13.9789 20.4458 13.9983 20.3482 13.9982 20.2497C13.9982 20.1512 13.9788 20.0537 13.941 19.9627C13.9033 19.8717 13.848 19.7891 13.7783 19.7194L12.8089 18.7501H19.2486C19.6435 18.7498 20.0313 18.6457 20.3731 18.4481C20.715 18.2505 20.9988 17.9665 21.1962 17.6245C21.3935 17.2825 21.4973 16.8946 21.4973 16.4997C21.4972 16.1049 21.3932 15.717 21.1958 15.3751H21.1921ZM10.9986 1.50007C11.1304 1.49875 11.2602 1.53285 11.3743 1.59882C11.4884 1.66479 11.5827 1.7602 11.6474 1.87507L14.8621 7.42976L13.5421 7.07539C13.3523 7.03084 13.1526 7.06193 12.9854 7.16208C12.8181 7.26222 12.6965 7.42354 12.6461 7.61186C12.5958 7.80018 12.6207 8.0007 12.7157 8.17093C12.8107 8.34116 12.9682 8.46773 13.1549 8.52382L16.228 9.34789C16.2914 9.36453 16.3566 9.37303 16.4221 9.3732C16.5871 9.37304 16.7474 9.31849 16.8782 9.21798C17.0091 9.11748 17.1031 8.97663 17.1458 8.81726L17.9699 5.7432C17.9982 5.64722 18.007 5.54655 17.9958 5.44712C17.9846 5.3477 17.9536 5.25151 17.9046 5.16425C17.8557 5.07698 17.7897 5.00038 17.7107 4.93898C17.6317 4.87757 17.5413 4.8326 17.4446 4.8067C17.348 4.7808 17.2471 4.77451 17.148 4.78818C17.0489 4.80186 16.9535 4.83523 16.8675 4.88633C16.7814 4.93743 16.7065 5.00523 16.6471 5.08573C16.5876 5.16623 16.5449 5.25781 16.5214 5.35507L16.1652 6.68351L12.9458 1.12507C12.7482 0.783671 12.4642 0.50024 12.1224 0.303201C11.7807 0.106162 11.3931 0.00244141 10.9986 0.00244141C10.6041 0.00244141 10.2166 0.106162 9.87481 0.303201C9.53305 0.50024 9.24911 0.783671 9.05144 1.12507L6.88019 4.87507C6.7869 5.04687 6.76438 5.2483 6.81742 5.43646C6.87046 5.62462 6.99488 5.78464 7.16416 5.88242C7.33344 5.9802 7.53421 6.00801 7.7237 5.95995C7.91319 5.91188 8.07643 5.79172 8.17863 5.62507L10.3499 1.87507C10.4145 1.7602 10.5088 1.66479 10.623 1.59882C10.7371 1.53285 10.8668 1.49875 10.9986 1.50007Z" fill="#FEFEFE"/>
</svg>
