<svg width="17" height="17" viewBox="0 0 17 17" fill="none" xmlns="http://www.w3.org/2000/svg">
<path d="M16.3222 7.62273L11.3644 5.81961C11.3221 5.80424 11.2836 5.77976 11.2518 5.74791C11.2199 5.71605 11.1954 5.67758 11.1801 5.63523L9.37693 0.677419C9.31142 0.497346 9.19209 0.341791 9.03514 0.231871C8.87818 0.12195 8.69121 0.0629883 8.49959 0.0629883C8.30797 0.0629883 8.12099 0.12195 7.96404 0.231871C7.80708 0.341791 7.68775 0.497346 7.62224 0.677419L5.81912 5.63523C5.80375 5.67758 5.77928 5.71605 5.74742 5.74791C5.71556 5.77976 5.6771 5.80424 5.63474 5.81961L0.67693 7.62273C0.496858 7.68824 0.341303 7.80757 0.231383 7.96453C0.121462 8.12148 0.0625 8.30846 0.0625 8.50008C0.0625 8.69169 0.121462 8.87867 0.231383 9.03563C0.341303 9.19258 0.496858 9.31191 0.67693 9.37742L5.63474 11.1805C5.6771 11.1959 5.71556 11.2204 5.74742 11.2522C5.77928 11.2841 5.80375 11.3226 5.81912 11.3649L7.62224 16.3227C7.68775 16.5028 7.80708 16.6584 7.96404 16.7683C8.12099 16.8782 8.30797 16.9372 8.49959 16.9372C8.69121 16.9372 8.87818 16.8782 9.03514 16.7683C9.19209 16.6584 9.31142 16.5028 9.37693 16.3227L11.1801 11.3649C11.1954 11.3226 11.2199 11.2841 11.2518 11.2522C11.2836 11.2204 11.3221 11.1959 11.3644 11.1805L16.3222 9.37742C16.5023 9.31191 16.6579 9.19258 16.7678 9.03563C16.8777 8.87867 16.9367 8.69169 16.9367 8.50008C16.9367 8.30846 16.8777 8.12148 16.7678 7.96453C16.6579 7.80757 16.5023 7.68824 16.3222 7.62273ZM16.109 8.79461L11.1511 10.597C11.0228 10.6435 10.9063 10.7176 10.8097 10.8141C10.7132 10.9107 10.6391 11.0272 10.5926 11.1555L8.79021 16.1095C8.76718 16.1677 8.72714 16.2178 8.67532 16.253C8.62349 16.2882 8.56226 16.3071 8.49959 16.3071C8.43691 16.3071 8.37569 16.2882 8.32386 16.253C8.27203 16.2178 8.232 16.1677 8.20896 16.1095L6.40662 11.1516C6.3601 11.0233 6.28595 10.9068 6.18943 10.8102C6.09291 10.7137 5.97636 10.6396 5.84802 10.593L0.890212 8.7907C0.831924 8.76766 0.781909 8.72763 0.746665 8.67581C0.71142 8.62398 0.692574 8.56275 0.692574 8.50008C0.692574 8.4374 0.71142 8.37617 0.746665 8.32435C0.781909 8.27252 0.831924 8.23249 0.890212 8.20945L5.84802 6.40711C5.97636 6.36059 6.09291 6.28644 6.18943 6.18992C6.28595 6.09339 6.3601 5.97685 6.40662 5.84851L8.20896 0.8907C8.232 0.832412 8.27203 0.782398 8.32386 0.747153C8.37569 0.711909 8.43691 0.693062 8.49959 0.693062C8.56226 0.693062 8.62349 0.711909 8.67532 0.747153C8.72714 0.782398 8.76718 0.832412 8.79021 0.8907L10.5926 5.84851C10.6391 5.97685 10.7132 6.09339 10.8097 6.18992C10.9063 6.28644 11.0228 6.36059 11.1511 6.40711L16.109 8.20945C16.1672 8.23249 16.2173 8.27252 16.2525 8.32435C16.2878 8.37617 16.3066 8.4374 16.3066 8.50008C16.3066 8.56275 16.2878 8.62398 16.2525 8.67581C16.2173 8.72763 16.1672 8.76766 16.109 8.7907V8.79461Z" fill="#FFCE31"/>
</svg>
